<svg xmlns="http://www.w3.org/2000/svg" xmlns:xlink="http://www.w3.org/1999/xlink" viewBox="0 0 77.63 77.78"><defs><style>.cls-1,.cls-2,.cls-4,.cls-5,.cls-6,.cls-7{fill:none;}.cls-1{stroke:#000;}.cls-1,.cls-14,.cls-15,.cls-17,.cls-18,.cls-19,.cls-2,.cls-4{stroke-miterlimit:10;}.cls-1,.cls-2{stroke-width:3px;}.cls-2{stroke:red;}.cls-3,.cls-8{fill:#354429;}.cls-4,.cls-8{stroke:#354429;}.cls-4,.cls-5,.cls-6,.cls-7,.cls-8{stroke-linecap:round;}.cls-5,.cls-6,.cls-7,.cls-8{stroke-linejoin:round;}.cls-14,.cls-15,.cls-19,.cls-5,.cls-6,.cls-7{stroke-width:0.5px;}.cls-5{stroke:url(#linear-gradient);}.cls-6{stroke:url(#linear-gradient-2);}.cls-7{stroke:url(#linear-gradient-3);}.cls-9{fill:url(#linear-gradient-4);}.cls-10{fill:url(#linear-gradient-5);}.cls-11{fill:#67332e;}.cls-12{fill:#4d7332;}.cls-13{fill:#474646;}.cls-14,.cls-15{stroke-linecap:square;}.cls-14{fill:url(#linear-gradient-6);stroke:url(#linear-gradient-7);}.cls-15{fill:url(#linear-gradient-8);stroke:url(#linear-gradient-9);}.cls-16{opacity:0.7;}.cls-17,.cls-18,.cls-19{fill:#66aa4c;stroke:#a5c497;}.cls-18{opacity:0.85;}</style><linearGradient id="linear-gradient" x1="24.39" y1="25.12" x2="32.62" y2="25.12" gradientUnits="userSpaceOnUse"><stop offset="0" stop-color="#a1abb1"/><stop offset="1" stop-color="#686771"/></linearGradient><linearGradient id="linear-gradient-2" x1="27.37" y1="26.55" x2="32.62" y2="26.55" gradientUnits="userSpaceOnUse"><stop offset="0" stop-color="#a3adad"/><stop offset="1" stop-color="#a2a19f"/></linearGradient><linearGradient id="linear-gradient-3" x1="21.45" y1="23.68" x2="32.62" y2="23.68" gradientUnits="userSpaceOnUse"><stop offset="0.99" stop-color="#77767f"/><stop offset="1" stop-color="#686771"/></linearGradient><linearGradient id="linear-gradient-4" x1="10.85" y1="46.64" x2="59.8" y2="46.64" gradientUnits="userSpaceOnUse"><stop offset="0" stop-color="#2b6b8a"/><stop offset="1" stop-color="#312955"/></linearGradient><linearGradient id="linear-gradient-5" x1="46.42" y1="30.25" x2="72.23" y2="30.25" gradientUnits="userSpaceOnUse"><stop offset="0" stop-color="#93919c"/><stop offset="1" stop-color="#211a48"/></linearGradient><linearGradient id="linear-gradient-6" x1="4.14" y1="19.43" x2="77.38" y2="19.43" gradientUnits="userSpaceOnUse"><stop offset="0" stop-color="#2b2558"/><stop offset="1" stop-color="#3e6f84"/></linearGradient><linearGradient id="linear-gradient-7" x1="3.55" y1="19.31" x2="77.63" y2="19.31" xlink:href="#linear-gradient-6"/><linearGradient id="linear-gradient-8" x1="77.37" y1="38.67" x2="77.37" y2="38.67" xlink:href="#linear-gradient-6"/><linearGradient id="linear-gradient-9" x1="77.12" y1="38.79" x2="77.62" y2="38.79" xlink:href="#linear-gradient-6"/></defs><g id="Layer_2" data-name="Layer 2"><g id="Layer_1-2" data-name="Layer 1"><path class="cls-1" d="M18.37,70.37a37.4,37.4,0,0,1,0-62.52"/><path class="cls-2" d="M18.37,66.82a34.48,34.48,0,0,1,0-55.42"/><path class="cls-3" d="M73.14,55.72a38.41,38.41,0,0,1-69.27.5,66.8,66.8,0,0,0,34.27,9.5A66.83,66.83,0,0,0,73.14,55.72Z"/><circle class="cls-3" cx="63.3" cy="42.36" r="2.99"/><rect class="cls-3" x="62.65" y="38.51" width="1.31" height="1.31"/><rect class="cls-3" x="62.71" y="44.87" width="1.31" height="1.31"/><rect class="cls-3" x="60.41" y="39.46" width="1.31" height="1.31" transform="translate(-10.48 54.93) rotate(-45)"/><rect class="cls-3" x="64.95" y="43.92" width="1.31" height="1.31" transform="translate(-12.31 59.44) rotate(-45)"/><rect class="cls-3" x="59.5" y="41.72" width="1.31" height="1.31" transform="translate(17.78 102.52) rotate(-90)"/><rect class="cls-3" x="65.86" y="41.66" width="1.31" height="1.31" transform="translate(24.2 108.83) rotate(-90)"/><rect class="cls-3" x="60.45" y="43.96" width="1.31" height="1.31" transform="translate(72.76 119.37) rotate(-135)"/><rect class="cls-3" x="64.91" y="39.42" width="1.31" height="1.31" transform="translate(83.59 114.77) rotate(-135)"/><circle class="cls-3" cx="68.57" cy="47.2" r="2.34"/><rect class="cls-3" x="70.31" y="45.62" width="1.02" height="1.02" transform="translate(81.75 -37.68) rotate(64.35)"/><rect class="cls-3" x="65.85" y="47.8" width="1.02" height="1.02" transform="translate(81.19 -32.42) rotate(64.35)"/><rect class="cls-3" x="68.88" y="44.36" width="1.02" height="1.02" transform="translate(18.79 -20.46) rotate(19.35)"/><rect class="cls-3" x="67.28" y="49.06" width="1.02" height="1.02" transform="translate(20.26 -19.66) rotate(19.35)"/><rect class="cls-3" x="66.98" y="44.48" width="1.02" height="1.02" transform="translate(-12.82 33.64) rotate(-25.65)"/><rect class="cls-3" x="69.17" y="48.94" width="1.02" height="1.02" transform="translate(-14.54 35.03) rotate(-25.65)"/><rect class="cls-3" x="65.73" y="45.91" width="1.02" height="1.02" transform="translate(0.49 93.53) rotate(-70.65)"/><rect class="cls-3" x="70.43" y="47.51" width="1.02" height="1.02" transform="translate(2.12 99.04) rotate(-70.65)"/><path class="cls-4" d="M33.37,20.94A14.95,14.95,0,1,1,22.85,35.22a14.79,14.79,0,0,1,1-5.5"/><path class="cls-5" d="M24.64,28.72a15,15,0,0,1,7.73-7.2"/><path class="cls-6" d="M32.37,24.39a12.22,12.22,0,0,0-4.75,4.33"/><path class="cls-7" d="M21.7,28.72A17.65,17.65,0,0,1,32.37,18.65"/><polyline class="cls-8" points="38.23 22.3 38.23 19.01 37.22 18 37.22 15.95 38.2 14.97 38.2 13.61 38.2 14.97 39.22 16 39.22 17.98 38.23 19.01"/><path class="cls-9" d="M22.72,33.73a17.87,17.87,0,0,0-3.35,2c-6,4.54-10.35,13.87-7.75,18.71,4.34,8.06,29.59,6.74,45.89-5,1-.68,1.72-1.29,2.29-1.76l-1.2-1.26c-.6.4-1.22.81-1.85,1.2A72.67,72.67,0,0,1,35.2,56.65h0c-3.28.54-15.4,2.56-19.5-3.12a8.79,8.79,0,0,1-1.38-5.76c.4-6.19,6.39-10.8,7.44-11.58Z"/><path class="cls-10" d="M46.42,22.45c0-.27,6.6-1.42,11.1-1.44s6.68.69,7.38,1c1.45.54,4.62,1.75,6.24,4.5,2.07,3.51,1.1,8.71-2.28,13l-2-1.56a11,11,0,0,0,1-1.39c1.4-2.41,2.6-6.44,1.32-9.29-1.72-3.85-7.49-4.5-12.23-5C50.8,21.54,46.45,22.66,46.42,22.45Z"/><path class="cls-11" d="M32.21,48.05,43.12,48c-.8-.34-1.47-.65-2-.89-1-.48-1.28-.63-1.47-.94a2.32,2.32,0,0,1-.09-1.78c.3-1,1-1.29.92-1.69s-.52-.57-2.21-.61l-.69,1.46-.85-1.48c-.48,0-1.75,0-1.9.49a.42.42,0,0,0,0,.06c0,.17.18.39.8,1.61a2,2,0,0,1,.32.89,1.77,1.77,0,0,1-.76,1.21A9.75,9.75,0,0,1,32.21,48.05Z"/><path class="cls-12" d="M40.12,42.85a.46.46,0,0,1,.16-.06.58.58,0,0,1,.14,0,1.77,1.77,0,0,1,1.19.34c.43.24.43.34.71.43a1.46,1.46,0,0,0,.85,0,1.7,1.7,0,0,0,1-.85,1.58,1.58,0,0,0,.64.69c.38.21.83.21,1.92-.09a7.42,7.42,0,0,0,2.38-.89A4,4,0,0,0,50,37.77c-.43-.65-1-.72-1.24-1.53s.17-1.09-.13-1.65-1.09-.44-1.54-1.14.1-1.22-.36-1.81-.79-.24-1.7-.85c-.69-.46-.56-.68-1-.89-.9-.39-1.4.38-2.59.16a4.8,4.8,0,0,1-1.83-.94c-.81-.54-.95-.81-1.46-.89s-.65.22-1.56.37c-1.16.19-1.46-.23-2.08.09s-.43.94-1.07,1.28c-.86.45-1.66-.42-2.63.12-.32.17-.21.24-.69.59-.93.67-1.4.43-1.78.89s.1,1.13-.37,1.92-.91.47-1.35,1.17-.1.87-.39,1.71-.78.85-1.14,1.72a4.15,4.15,0,0,0,.23,3.16,4.23,4.23,0,0,0,.75,1.12c.07.06,1.53,1.53,3,1.16.81-.21,1-.85,1.63-.75s.56.59,1.09.66c.73.11,1-.79,1.92-.8a2.3,2.3,0,0,1,.4,0c1.31.24,1.84-.54,3-.49C38.09,42.24,40,42.93,40.12,42.85Z"/><path class="cls-13" d="M35.83,39.8c0,.29.36.45.49.51a1.25,1.25,0,0,0,1,0c.8-.33,1.11-1.43,1-1.54s-.35.35-1,.51a2,2,0,0,1-1,0A.61.61,0,0,0,35.83,39.8Z"/><path class="cls-13" d="M27.32,40.77c-.22,0-.64.57-.49,1s.74.49,1,.52a1.66,1.66,0,0,0,1.45-.52c0-.09-.94.43-1.45,0S27.54,40.81,27.32,40.77Z"/><path class="cls-13" d="M42.72,36.56c0,.45.2,1,.49,1,.53,0,1.29-1.76,1-2.06S42.81,35.7,42.72,36.56Z"/><path class="cls-13" d="M38.72,32.31c0,.46.2,1,.49,1,.53,0,1.29-1.76,1-2.07S38.81,31.46,38.72,32.31Z"/><path class="cls-13" d="M29.55,36.79c0,.39.17.86.41.88.46,0,1.11-1.5.83-1.76S29.62,36.06,29.55,36.79Z"/><path class="cls-13" d="M34.7,34.83a.66.66,0,0,0-1,0c-.13.33.67,1.18,1,1A.76.76,0,0,0,34.7,34.83Z"/><path class="cls-13" d="M46.12,39.89c-.16.22-.09.52,0,.93s.17.8.43.93c.43.21,1.25-.26,1.32-.93a1.14,1.14,0,0,0-.44-.93A1,1,0,0,0,46.12,39.89Z"/><path class="cls-14" d="M76.35,29.83a33.13,33.13,0,0,0-4.57-10.16A38,38,0,0,0,4.14,22.31a64.44,64.44,0,0,1,64.18-2.75,19.72,19.72,0,0,1,5.53,5.77c3.44,5.6,3.53,12.39,3.52,13.28A33.19,33.19,0,0,0,76.35,29.83Z"/><path class="cls-15" d="M77.37,38.61v0Z"/><g class="cls-16"><path class="cls-17" d="M38.71,72c-1-.94-.38-3.6,1-5,.81-.83,1.5-.81,3-2a13.68,13.68,0,0,0,2-2,6.5,6.5,0,0,1,0,7C43.13,72.15,39.79,73.09,38.71,72Z"/><path class="cls-18" d="M38.66,72.4c0-1.33,2.27-2.81,4.24-2.83,1.15,0,1.63.49,3.53.71a13.08,13.08,0,0,0,2.83,0,6.49,6.49,0,0,1-4.95,5C41.68,75.63,38.66,73.93,38.66,72.4Z"/><path class="cls-17" d="M38.34,72.4c0-1.33-2.28-2.81-4.24-2.83-1.16,0-1.64.49-3.54.71a13.09,13.09,0,0,1-2.83,0,6.51,6.51,0,0,0,4.95,5C35.31,75.63,38.34,73.93,38.34,72.4Z"/><path class="cls-17" d="M38.29,72c1-.94.38-3.6-1-5-.81-.83-1.5-.81-3-2a13.19,13.19,0,0,1-2-2,6.48,6.48,0,0,0,0,7C33.86,72.15,37.2,73.09,38.29,72Z"/><path class="cls-19" d="M38.37,71.72c1.63,0,2.81-2.3,3-4,.13-1.17-.25-2.13-1-4a28.2,28.2,0,0,0-2-4,25.73,25.73,0,0,0-2,4c-.93,2.34-1.4,3.57-1,5S37,71.75,38.37,71.72Z"/></g></g></g></svg>